<svg id="Layer_1" data-name="Layer 1" xmlns="http://www.w3.org/2000/svg" viewBox="0 0 243.92 60"><defs><style>.cls-1{fill:#121a2d;}.cls-2{fill:#5d89c7;}.cls-3,.cls-4{fill:#58a9de;}.cls-4{font-size:24px;font-family:HelveticaNeue-CondensedBlack, Helvetica Neue;font-weight:800;}</style></defs><rect class="cls-1" x="-2.59" y="-2.54" width="250.75" height="64.96"/><path class="cls-1" d="M238.24,60.11H6.42V0H238.24ZM8.91,59.41H235.75V.7H8.91Z"/><path class="cls-2" d="M34.13,53.79H10.47A3.84,3.84,0,0,1,6.62,50V10.34A3.84,3.84,0,0,1,10.47,6.5H34.13v7.68H14.31V46.11H34.13Z"/><rect class="cls-2" x="9.73" y="26.3" width="17.01" height="7.68"/><path class="cls-3" d="M55,53.79H31.36V46.11H51.18v-13h-16a3.85,3.85,0,0,1-3.85-3.85V10.34A3.84,3.84,0,0,1,35.21,6.5H57.85v7.68H39.05V25.44H55a3.84,3.84,0,0,1,3.85,3.84V50A3.84,3.84,0,0,1,55,53.79Z"/><text class="cls-4" transform="translate(72.56 24.98)">Systems AI 2020 <tspan x="0" y="28.8">Week 00 </tspan></text></svg>