<svg id="Layer_1" data-name="Layer 1" xmlns="http://www.w3.org/2000/svg" viewBox="0 0 249.12 64.96"><defs><style>.cls-1{fill:#121a2d;}.cls-2{fill:#5d89c7;}.cls-3,.cls-4{fill:#58a9de;}.cls-4{font-size:24px;font-family:HelveticaNeue-CondensedBlack, Helvetica Neue;font-weight:800;}</style></defs><rect class="cls-1" width="250.75" height="64.96"/><path class="cls-1" d="M240.83,62.65H9V2.54H240.83ZM11.5,62H238.34V3.24H11.5Z"/><path class="cls-2" d="M36.72,56.33H13.06a3.84,3.84,0,0,1-3.85-3.84V12.88A3.84,3.84,0,0,1,13.06,9H36.72v7.69H16.9V48.65H36.72Z"/><rect class="cls-2" x="12.32" y="28.85" width="17.01" height="7.68"/><path class="cls-3" d="M57.61,56.33H34V48.65H53.77v-13h-16A3.84,3.84,0,0,1,34,31.83V12.88A3.84,3.84,0,0,1,37.8,9H60.44v7.69H41.64V28h16a3.85,3.85,0,0,1,3.85,3.85V52.49A3.84,3.84,0,0,1,57.61,56.33Z"/><text class="cls-4" transform="translate(75.15 27.53)">Systems AI 2020 <tspan x="0" y="28.8">Week 00 </tspan></text></svg>